<?xml version="1.0" standalone="no"?><!DOCTYPE svg PUBLIC "-//W3C//DTD SVG 1.1//EN" "http://www.w3.org/Graphics/SVG/1.1/DTD/svg11.dtd"><svg t="1584181323577" class="icon" viewBox="0 0 1024 1024" version="1.1" xmlns="http://www.w3.org/2000/svg" p-id="5873" xmlns:xlink="http://www.w3.org/1999/xlink" width="128" height="128"><defs><style type="text/css"></style></defs><path d="M569.636096 610.304a18.176 18.176 0 0 0-5.632-13.056l-16.128-15.616a25.6 25.6 0 0 1-4.352-29.184l13.056-30.976a27.392 27.392 0 0 1 25.6-17.408h22.784a18.688 18.688 0 0 0 18.944-18.432v-37.12a18.688 18.688 0 0 0-18.944-18.432h-22.784a27.392 27.392 0 0 1-25.6-17.664l-13.056-30.976a25.6 25.6 0 0 1 4.352-29.184l16.128-15.616a18.176 18.176 0 0 0 0-25.6l-25.6-25.6a19.456 19.456 0 0 0-25.6 0l-16.128 15.616a27.904 27.904 0 0 1-30.208 4.352l-31.744-12.8a25.6 25.6 0 0 1-18.176-23.808v-22.784a18.688 18.688 0 0 0-18.944-18.432h-40.448a18.688 18.688 0 0 0-18.944 18.432v22.272a25.6 25.6 0 0 1-18.176 23.808l-31.744 12.8a27.648 27.648 0 0 1-30.208-4.352l-16.128-15.616a19.456 19.456 0 0 0-25.6 0l-25.6 25.6a17.92 17.92 0 0 0 0 25.6l16.128 15.616a25.6 25.6 0 0 1 4.352 29.184l-13.056 30.976a27.392 27.392 0 0 1-25.6 17.664h-24.32a18.688 18.688 0 0 0-18.944 18.432V486.4a18.688 18.688 0 0 0 18.944 18.432h22.784a27.392 27.392 0 0 1 25.6 17.664l13.056 30.72A25.6 25.6 0 0 1 205.092096 581.632l-16.128 15.616a18.176 18.176 0 0 0 0 25.6l25.6 25.6a19.456 19.456 0 0 0 25.6 0l16.128-15.616a27.648 27.648 0 0 1 30.208-4.096l31.744 12.544a25.6 25.6 0 0 1 18.176 23.808v22.016a18.688 18.688 0 0 0 18.944 18.432h37.888a18.688 18.688 0 0 0 18.944-18.432V665.6a25.6 25.6 0 0 1 18.176-23.808l31.744-12.544a27.904 27.904 0 0 1 30.208 4.096l16.128 15.616a19.456 19.456 0 0 0 25.6 0l25.6-25.6a18.176 18.176 0 0 0 9.984-13.056z m-193.536-10.752a132.608 132.608 0 1 1 0-264.96 132.608 132.608 0 1 1 0 265.216zM882.212096 665.6h-15.616a18.944 18.944 0 0 1-16.896-12.032l-8.96-21.248a17.664 17.664 0 0 1 3.072-20.224l11.008-10.752a12.544 12.544 0 0 0 0-17.92l-18.432-17.92a13.568 13.568 0 0 0-18.432 0l-11.008 10.752a19.2 19.2 0 0 1-20.736 2.816l-21.76-8.704a18.432 18.432 0 0 1-12.544-16.64v-15.104a13.056 13.056 0 0 0-13.056-12.8h-25.6a13.056 13.056 0 0 0-13.056 12.8v15.104a18.432 18.432 0 0 1-12.544 16.64l-21.76 8.704a19.2 19.2 0 0 1-20.736-2.816l-11.264-10.752a13.568 13.568 0 0 0-18.432 0l-18.432 17.92a12.544 12.544 0 0 0 0 17.92l11.008 10.752a17.664 17.664 0 0 1 3.072 20.224l-8.96 21.248a18.944 18.944 0 0 1-16.896 12.032h-15.616a13.056 13.056 0 0 0-13.056 12.8v25.6a12.8 12.8 0 0 0 13.056 12.8h15.616a18.944 18.944 0 0 1 16.896 12.032l8.96 21.248a17.92 17.92 0 0 1-3.072 20.224l-11.008 10.752a12.544 12.544 0 0 0 0 17.92l18.432 17.92a13.568 13.568 0 0 0 18.432 0l11.008-10.752a19.2 19.2 0 0 1 20.736-2.816l22.016 8.704a18.432 18.432 0 0 1 12.544 16.384V844.8a13.056 13.056 0 0 0 13.056 12.8h25.6a13.056 13.056 0 0 0 13.056-12.8v-15.104a18.432 18.432 0 0 1 12.544-16.384l22.016-8.704a19.2 19.2 0 0 1 20.736 2.816l11.008 10.752a13.568 13.568 0 0 0 18.432 0l18.432-17.92a12.288 12.288 0 0 0 0-17.92l-11.008-10.752a17.92 17.92 0 0 1-3.072-20.224l8.96-21.248a18.944 18.944 0 0 1 16.896-12.032h15.616a13.056 13.056 0 0 0 13.056-12.8v-25.6a12.8 12.8 0 0 0-13.056-12.8z m-157.184 116.48A91.136 91.136 0 1 1 819.492096 691.2a92.416 92.416 0 0 1-94.208 91.904z" p-id="5874"></path><path d="M967.460096 0H57.380096A64.768 64.768 0 0 0 0.292096 70.4v882.944A65.024 65.024 0 0 0 57.124096 1024h910.336A64.768 64.768 0 0 0 1024.292096 953.6V70.4A64.768 64.768 0 0 0 967.460096 0zM886.052096 67.328a33.792 33.792 0 1 1-34.304 33.792 34.048 34.048 0 0 1 34.304-33.792z m-131.072 0a33.792 33.792 0 1 1-34.304 33.792 34.048 34.048 0 0 1 34.304-33.792zM112.164096 51.2h493.056a39.424 39.424 0 0 1 37.632 40.96 39.424 39.424 0 0 1-37.632 40.96H112.164096A39.424 39.424 0 0 1 74.532096 91.392 39.424 39.424 0 0 1 112.164096 51.2z m864.512 889.6A33.024 33.024 0 0 1 943.652096 972.8H80.932096a33.28 33.28 0 0 1-33.024-33.28V211.2a33.024 33.024 0 0 1 33.024-33.28h862.72a33.28 33.28 0 0 1 33.024 33.28z" p-id="5875"></path></svg>